<svg width="45" height="46" viewBox="0 0 45 46" fill="none" xmlns="http://www.w3.org/2000/svg">
<path d="M38.9753 24.8728C39.2369 24.8719 39.3994 24.8543 39.4273 24.8526C39.819 24.8094 40.1043 24.4561 40.0616 24.0635C40.0204 23.6709 39.6695 23.3864 39.2794 23.4296C39.2484 23.4328 36.9496 23.6469 35.2835 22.0535C34.9991 21.7813 34.5471 21.7936 34.2743 22.0802C34.0014 22.3667 34.0115 22.82 34.2959 23.0923C35.9712 24.6934 38.0667 24.8774 38.9753 24.8743L38.9753 24.8728Z" fill="white"/>
<path d="M5.71293 25.0217C6.62151 25.0187 8.71606 24.8145 10.3934 23.1976C10.6786 22.9234 10.6886 22.4701 10.4166 22.1854C10.1446 21.9006 9.69268 21.8928 9.40745 22.167C7.72085 23.7933 5.43503 23.582 5.41336 23.579C5.02182 23.5399 4.67002 23.8252 4.62761 24.2196C4.58675 24.6125 4.86945 24.964 5.26253 25.0046C5.28884 25.0076 5.45289 25.0226 5.71448 25.0217L5.71293 25.0217Z" fill="white"/>
<path d="M0.0859397 22.7279C0.0914128 10.3586 10.1295 0.248655 22.4628 0.193585C34.796 0.138516 44.8273 10.1567 44.8218 22.526C44.8164 34.8954 34.7783 45.0053 22.445 45.0603C10.1118 45.1154 0.0804666 35.0972 0.0859397 22.7279ZM1.51306 22.7216C1.50882 34.3023 10.8988 43.6815 22.4457 43.6291C33.9927 43.5766 43.3905 34.1131 43.3947 22.5323C43.399 10.9516 34.009 1.57243 22.4621 1.62488C10.9151 1.67733 1.51729 11.1409 1.51306 22.7216Z" fill="white"/>
<path d="M22.4582 17.4456C23.7816 17.4396 24.855 15.3823 24.8559 12.8506C24.8568 10.3188 23.7848 8.2713 22.4615 8.27733C21.1381 8.28336 20.0647 10.3406 20.0638 12.8724C20.0629 15.4042 21.1349 17.4517 22.4582 17.4456Z" fill="white"/>
<path d="M15.1547 19.8572C16.478 19.8511 17.5515 17.7938 17.5524 15.2621C17.5532 12.7303 16.4812 10.6828 15.1579 10.6888C13.8346 10.6949 12.7611 12.7522 12.7602 15.2839C12.7593 17.8157 13.8314 19.8632 15.1547 19.8572Z" fill="white"/>
<path d="M29.6967 19.7924C31.02 19.7864 32.0935 17.7291 32.0944 15.1974C32.0952 12.6656 31.0232 10.6181 29.6999 10.6241C28.3766 10.6301 27.3031 12.6874 27.3022 15.2192C27.3013 17.751 28.3734 19.7985 29.6967 19.7924Z" fill="white"/>
<path d="M7.20967 24.4233L7.22499 24.5226C8.40208 31.9453 14.9453 37.5213 22.4431 37.487C29.9455 37.4527 36.4924 31.819 37.6758 24.3854L37.6914 24.286L36.3127 24.0718L36.297 24.1712C35.2215 30.9322 29.2682 36.0563 22.4438 36.0868C15.6239 36.1173 9.67427 31.0468 8.60447 24.296L8.58915 24.1967L7.20967 24.4233Z" fill="white"/>
</svg>
