<svg width="547" height="289" viewBox="0 0 547 289" fill="none" xmlns="http://www.w3.org/2000/svg">
<path d="M79.8681 187.688C86.0836 187.688 91.5739 186.42 96.339 183.883C101.104 181.347 105.041 177.965 108.148 173.738C111.256 169.511 113.535 164.755 114.985 159.471C116.643 153.976 117.471 148.269 117.471 142.351C117.471 135.587 116.85 129.247 115.607 123.329C114.364 117.199 112.292 111.809 109.391 107.16C106.491 102.51 102.658 98.8108 97.8929 96.0631C93.1277 93.3154 87.1195 91.9416 79.8681 91.9416C73.6527 91.9416 68.266 93.2098 63.7081 95.7461C59.3573 98.2824 55.628 101.77 52.5203 106.208C49.6198 110.436 47.4444 115.403 45.9941 121.109C44.751 126.605 44.1295 132.417 44.1295 138.546C44.1295 144.465 44.6474 150.383 45.6833 156.301C46.9264 162.007 48.8946 167.186 51.588 171.836C54.4885 176.486 58.2178 180.29 62.7757 183.249C67.3337 186.208 73.0312 187.688 79.8681 187.688ZM159.425 215.904C159.425 222.456 158.493 229.96 156.629 238.414C154.971 246.868 151.242 254.689 145.441 261.875C139.64 269.273 131.249 275.508 120.268 280.58C109.288 285.653 94.578 288.189 76.1389 288.189C68.266 288.189 60.186 287.133 51.8988 285.019C43.8187 283.117 36.3602 280.052 29.5232 275.825C22.8935 271.598 17.2996 266.102 12.7416 259.339C8.39082 252.787 5.90465 244.861 5.28311 235.561H49.1018C51.1736 244.015 55.2136 249.828 61.2219 252.998C67.2301 256.38 74.1707 258.071 82.0435 258.071C94.4744 258.071 103.487 254.266 109.081 246.657C114.882 239.048 117.679 229.431 117.471 217.806V196.248H116.85C112.085 204.914 105.248 211.36 96.339 215.587C87.6374 219.603 78.4179 221.611 68.6804 221.611C56.6639 221.611 46.3049 219.497 37.6033 215.27C28.9017 210.832 21.754 204.914 16.1601 197.516C10.5662 189.907 6.4226 181.136 3.72925 171.202C1.24308 161.056 0 150.383 0 139.181C0 128.613 1.45026 118.467 4.35079 108.745C7.4585 98.8108 11.9129 90.1451 17.7139 82.7475C23.515 75.1385 30.6627 69.1147 39.1571 64.6762C47.8587 60.2376 57.8034 58.0183 68.9912 58.0183C79.5574 58.0183 88.7769 60.0262 96.6498 64.0421C104.73 68.0579 111.463 74.8214 116.85 84.3326H117.471V62.4569H159.425V215.904Z" fill="black"/>
<path d="M218.574 37.0937H174.444V0H218.574V37.0937ZM174.444 62.4569H218.574V226.367H174.444V62.4569Z" fill="black"/>
<path d="M231.568 62.4569H273.522V85.2838H274.454C280.048 75.7726 287.3 68.9034 296.208 64.6762C305.117 60.2376 314.233 58.0183 323.556 58.0183C335.366 58.0183 344.999 59.7092 352.458 63.091C360.124 66.2614 366.132 70.8056 370.483 76.7237C374.833 82.4304 377.838 89.511 379.495 97.9654C381.36 106.208 382.292 115.403 382.292 125.548V226.367H338.163V133.791C338.163 120.264 336.091 110.224 331.947 103.672C327.803 96.9086 320.449 93.5268 309.882 93.5268C297.866 93.5268 289.164 97.2256 283.778 104.623C278.391 111.809 275.698 123.751 275.698 140.449V226.367H231.568V62.4569Z" fill="black"/>
<path d="M546.998 224.185H396.672V63.4912H546.998V224.185ZM471.853 92.5234C442.938 92.5234 419.497 115.732 419.497 144.36C419.497 172.989 442.938 196.197 471.853 196.197C500.767 196.197 524.207 172.989 524.207 144.36C524.207 115.732 500.767 92.5235 471.853 92.5234Z" fill="black"/>
</svg>
